<svg xmlns="http://www.w3.org/2000/svg" viewBox="0 0 64 64" fill="none">
  <!-- Contour-ring mark: concentric organic bathymetric contours -->
  <g stroke="#4FD8EB" fill="none" stroke-linecap="round" stroke-linejoin="round">
    <path stroke-width="3.5" d="M32 24.5c4.6-.4 8.6 2.6 9 6.8.4 4.4-3 8.1-7.6 8.5-4.7.4-8.9-2.7-9.3-7-.4-4.2 3.2-7.9 7.9-8.3Z"/>
    <path stroke-width="2.75" opacity="0.85" d="M31 16.5c9.4-.9 17.6 4.9 18.6 13.2 1 8.6-5.8 16.4-15.3 17.3-9.6.9-18.2-5.4-19.1-14-.9-8.4 6.3-15.6 15.8-16.5Z"/>
    <path stroke-width="2" opacity="0.6" d="M30 8.5C43.9 7 56.4 15.4 58 27.6c1.6 12.8-8.4 24.5-22.5 25.9C21.3 54.9 8.4 45.8 7 33 5.6 20.7 16.1 10 30 8.5Z"/>
    <path stroke-width="1.5" opacity="0.35" d="M29.5 2C46.8.2 62.5 10.6 64.4 25.8c2 16-10.4 30.6-28 32.4C18.7 60 2.6 48.6 1 32.6-.8 17.2 12.3 3.8 29.5 2Z"/>
  </g>
</svg>
