<svg xmlns="http://www.w3.org/2000/svg" width="1200" height="630" viewBox="0 0 1200 630">
  <!-- Default OpenGraph image: abyss background + bathymetric contour motif -->
  <rect width="1200" height="630" fill="#050D16"/>
  <radialGradient id="glow" cx="0.82" cy="0.28" r="0.7">
    <stop offset="0%" stop-color="#4FD8EB" stop-opacity="0.10"/>
    <stop offset="55%" stop-color="#2DD4A8" stop-opacity="0.04"/>
    <stop offset="100%" stop-color="#050D16" stop-opacity="0"/>
  </radialGradient>
  <rect width="1200" height="630" fill="url(#glow)"/>
  <!-- Contour rings, offset to the right -->
  <g stroke="#4FD8EB" fill="none" stroke-linecap="round">
    <path stroke-width="2.5" opacity="0.9" d="M965 185c38-4 71 21 74 55 4 36-25 67-63 71-39 4-73-22-77-57-3-35 27-65 66-69Z"/>
    <path stroke-width="2" opacity="0.55" d="M958 130c74-8 140 39 148 105 8 68-46 130-121 138-76 7-144-43-151-111-7-66 49-124 124-132Z"/>
    <path stroke-width="1.5" opacity="0.32" d="M950 75c110-12 209 58 221 156 12 102-68 195-179 206-113 12-215-63-226-165-11-99 73-185 184-197Z"/>
    <path stroke-width="1" opacity="0.18" d="M942 18c147-16 279 77 295 208 16 136-90 260-239 275-150 15-286-84-301-220-15-132 97-247 245-263Z"/>
    <path stroke-width="1" opacity="0.10" d="M935-40c183-20 348 96 368 260 20 169-113 324-298 343-187 19-357-105-376-274C610 124 750-20 935-40Z"/>
  </g>
  <!-- Faint contour trace, lower left -->
  <g stroke="#1E3247" fill="none" stroke-width="1.25">
    <path opacity="0.9" d="M60 560c40-30 110-38 170-16 55 20 120 18 170-12"/>
    <path opacity="0.6" d="M40 590c50-34 130-44 200-18 62 23 140 20 200-15"/>
  </g>
  <!-- Name + tagline (system font stack, kept simple) -->
  <g font-family="Georgia, 'Times New Roman', serif" fill="#E8F0F7">
    <text x="90" y="308" font-size="76" font-weight="600" letter-spacing="-1">A. Benavidez</text>
  </g>
  <g font-family="ui-monospace, 'Courier New', monospace">
    <text x="92" y="228" font-size="22" fill="#4FD8EB" letter-spacing="4">SCIENTIFIC VISUALIZATION · REMOTE SENSING</text>
    <text x="92" y="372" font-size="27" fill="#8FA6BA">I transform scientific data into</text>
    <text x="92" y="412" font-size="27" fill="#8FA6BA">meaningful interactive experiences.</text>
  </g>
  <g font-family="ui-monospace, 'Courier New', monospace">
    <text x="92" y="560" font-size="18" fill="#4E6577" letter-spacing="2">armander001.github.io</text>
  </g>
</svg>
